<svg xmlns="http://www.w3.org/2000/svg" width="42" height="42" viewBox="0 0 800 800">
    <g transform="translate(158,-184)" />
    <g transform="translate(-158,-184)" />
    <path d="m575,341c-1.024,0 -2.048,0 -3.136,0.032c-14.912,-74.016 -79.776,-128.032 -156.864,-128.032c-64.032,0 -121.504,38.112 -146.688,96.032c-60.512,1.44 -109.312,51.104 -109.312,111.968c0,61.76 50.24,112 112,112l304,0c52.928,0 96,-43.072 96,-96c0,-52.928 -43.072,-96 -96,-96z" fill="#0055FF" />
    <path d="m401.848,571.912c-10.496,15.136 -34.848,52.608 -34.848,73.088c0,26.464 21.536,48 48,48c26.464,0 48,-21.536 48,-48c0,-20.48 -24.352,-57.952 -34.848,-73.088c-5.952,-8.64 -20.352,-8.64 -26.304,0z" fill="#0055FF" />
    <path d="m401.848,571.912c-10.496,15.136 -34.848,52.608 -34.848,73.088c0,26.464 21.536,48 48,48c26.464,0 48,-21.536 48,-48c0,-20.48 -24.352,-57.952 -34.848,-73.088c-5.952,-8.64 -20.352,-8.64 -26.304,0z" fill="#0055FF" />
    <path d="m401.848,387.912c-10.496,15.136 -34.848,52.608 -34.848,73.088c0,26.464 21.536,48 48,48c26.464,0 48,-21.536 48,-48c0,-20.48 -24.352,-57.952 -34.848,-73.088c-5.952,-8.64 -20.352,-8.64 -26.304,0z" fill="#0055FF" />
</svg>
