<svg xmlns="http://www.w3.org/2000/svg" width="42" height="42" viewBox="0 0 64 64">
    <circle cx="20" cy="20" r="7" fill="#F4A93A" />
    <line x1="30.50" y1="20.00" x2="34.00" y2="20.00" stroke="#F4A93A" stroke-width="3" stroke-linecap="round" />
    <line x1="27.42" y1="27.42" x2="29.90" y2="29.90" stroke="#F4A93A" stroke-width="3" stroke-linecap="round" />
    <line x1="20.00" y1="30.50" x2="20.00" y2="34.00" stroke="#F4A93A" stroke-width="3" stroke-linecap="round" />
    <line x1="12.58" y1="27.42" x2="10.10" y2="29.90" stroke="#F4A93A" stroke-width="3" stroke-linecap="round" />
    <line x1="9.50" y1="20.00" x2="6.00" y2="20.00" stroke="#F4A93A" stroke-width="3" stroke-linecap="round" />
    <line x1="12.58" y1="12.58" x2="10.10" y2="10.10" stroke="#F4A93A" stroke-width="3" stroke-linecap="round" />
    <line x1="20.00" y1="9.50" x2="20.00" y2="6.00" stroke="#F4A93A" stroke-width="3" stroke-linecap="round" />
    <line x1="27.42" y1="12.58" x2="29.90" y2="10.10" stroke="#F4A93A" stroke-width="3" stroke-linecap="round" />
    <path transform="translate(-1.40 -23.00) scale(0.1)" d="m480,466c-1.408,0 -2.784,0.032 -4.128,0.096c-14.24,-55.808 -64.864,-96.096 -123.872,-96.096c-45.6,0 -87.968,24.8 -110.752,64c-0.416,0 -0.832,0 -1.248,0c-52.928,0 -96,43.072 -96,96c0,52.928 43.072,96 96,96l240,0c44.128,0 80,-35.872 80,-80c0,-44.128 -35.872,-80 -80,-80z" fill="#0055FF" />
    <path d="M 33 38 L 26 50 L 31 50 L 28 60 L 38 46 L 33 46 L 36 38 Z" fill="#F4A93A" />
</svg>
